<svg width="33" height="25" viewBox="0 0 33 25" fill="none" xmlns="http://www.w3.org/2000/svg">
<path d="M31.8214 12.02L28.5712 9.34744V4.01682C28.5712 3.89842 28.5242 3.78486 28.4405 3.70113C28.3567 3.61741 28.2432 3.57037 28.1248 3.57037H26.339C26.2222 3.57109 26.1104 3.61753 26.0274 3.69973C25.9445 3.78194 25.8971 3.89337 25.8953 4.01013V7.14756L18.0724 0.724249C17.5103 0.256261 16.802 0 16.0706 0C15.3392 0 14.6309 0.256261 14.0688 0.724249L0.319834 12.02C0.229907 12.0953 0.155685 12.1875 0.101408 12.2915C0.0471298 12.3954 0.0138588 12.509 0.00349444 12.6258C-0.0068699 12.7426 0.00587542 12.8603 0.0410026 12.9722C0.0761298 13.0841 0.132951 13.188 0.208221 13.2779L0.779678 13.9643C0.93166 14.1458 1.14947 14.2594 1.38523 14.2804C1.621 14.3013 1.85543 14.2278 2.03699 14.0759L3.56999 12.8169V23.2142C3.57132 23.6874 3.75989 24.1409 4.09451 24.4755C4.42912 24.8101 4.88258 24.9987 5.3558 25H12.499C12.9722 24.9987 13.4257 24.8101 13.7603 24.4755C14.0949 24.1409 14.2835 23.6874 14.2848 23.2142V17.4103H17.8564V23.2142C17.8577 23.6874 18.0463 24.1409 18.3809 24.4755C18.7155 24.8101 19.169 24.9987 19.6422 25H26.7854C27.2564 24.999 27.708 24.8124 28.0423 24.4806C28.3766 24.1488 28.5667 23.6986 28.5712 23.2276V12.8158L30.1076 14.0781C30.2891 14.23 30.5236 14.3035 30.7593 14.2826C30.9951 14.2617 31.2129 14.148 31.3649 13.9665L31.9358 13.2807C32.0113 13.1905 32.0683 13.0863 32.1035 12.9741C32.1386 12.8618 32.1512 12.7437 32.1406 12.6266C32.13 12.5094 32.0963 12.3955 32.0415 12.2914C31.9867 12.1873 31.9119 12.0951 31.8214 12.02ZM25.8842 22.3213H20.5351V16.5174C20.5338 16.0442 20.3452 15.5908 20.0106 15.2561C19.676 14.9215 19.2225 14.733 18.7493 14.7316H13.3919C12.9187 14.733 12.4652 14.9215 12.1306 15.2561C11.796 15.5908 11.6074 16.0442 11.6061 16.5174V22.3213H6.2487V10.617L16.0706 2.54633L25.8925 10.6137L25.8842 22.3213Z" fill="#1A1053"/>
</svg>
