<svg width="25" height="25" viewBox="0 0 25 25" fill="none" xmlns="http://www.w3.org/2000/svg">
<path d="M12.1708 0.198454L11.0659 1.31621C10.8045 1.58076 10.8045 2.00971 11.0659 2.27431L19.7227 11.0322H0.669642C0.299832 11.0322 0 11.3355 0 11.7096V13.2904C0 13.6645 0.299832 13.9678 0.669642 13.9678H19.7227L11.0659 22.7257C10.8045 22.9903 10.8045 23.4192 11.0659 23.6838L12.1708 24.8016C12.4323 25.0661 12.8563 25.0661 13.1178 24.8016L24.8039 12.9791C25.0654 12.7145 25.0654 12.2856 24.8039 12.021L13.1178 0.198454C12.8563 -0.0661514 12.4323 -0.0661514 12.1708 0.198454Z" fill="white"/>
</svg>
