<svg width="60" height="60" viewBox="0 0 60 60" fill="none" xmlns="http://www.w3.org/2000/svg">
<path d="M31.8353 3.78141C32.1489 3.3835 32.3364 2.88242 32.3364 2.33638C32.3364 1.04611 31.2903 0 30 0C28.7097 0 27.6636 1.04611 27.6636 2.33638C27.6636 2.66226 27.7305 2.97232 27.8506 3.25376C27.8506 3.25376 27.8541 3.26449 27.8577 3.2696C27.9359 3.4494 28.0365 3.61694 28.155 3.76967C30.4331 7.82691 28.984 11.215 28.984 11.215H31.0129C31.0129 11.215 29.5668 7.83355 31.8353 3.78141Z" fill="#A7E355"/>
<path d="M21.3252 7.02547C21.4304 6.64952 21.4151 6.23731 21.2532 5.8486C20.8706 4.9307 19.8163 4.49652 18.8979 4.87911C17.9795 5.26169 17.5458 6.31597 17.9284 7.23438C18.0249 7.46628 18.1644 7.66703 18.3334 7.8315C18.3334 7.8315 18.3391 7.83763 18.3432 7.8407C18.452 7.94541 18.573 8.0348 18.7028 8.10835C21.5264 10.3196 21.5004 13.1601 21.5004 13.1601L22.9439 12.5584C22.9444 12.5584 20.9125 10.5811 21.3252 7.02547Z" fill="#7BB72D"/>
<path d="M7.62055 19.8883C7.429 19.5481 7.12661 19.2672 6.73789 19.1073C5.81795 18.7288 4.76571 19.1671 4.38671 20.087C4.0077 21.0069 4.44647 22.0592 5.36641 22.4382C5.59831 22.5337 5.83889 22.5771 6.07539 22.5741C6.07539 22.5741 6.08408 22.5746 6.08867 22.5736C6.23987 22.5705 6.38851 22.548 6.53204 22.5082C10.0923 22.075 12.0823 24.1019 12.0823 24.1019L12.6774 22.6558C12.6774 22.6558 9.84301 22.6946 7.62055 19.8883Z" fill="#7BB72D"/>
<path d="M7.02547 38.6748C6.64952 38.5696 6.23731 38.5849 5.8486 38.7468C4.9307 39.1294 4.49652 40.1837 4.87911 41.1021C5.26169 42.02 6.31597 42.4542 7.23438 42.0716C7.46628 41.9751 7.66703 41.8356 7.8315 41.6665C7.8315 41.6665 7.83763 41.6609 7.8407 41.6568C7.94541 41.548 8.0348 41.427 8.10835 41.2972C10.3196 38.4736 13.1601 38.4996 13.1601 38.4996L12.5584 37.0561C12.5584 37.0556 10.5811 39.087 7.02547 38.6748Z" fill="#7BB72D"/>
<path d="M19.8883 52.3794C19.5481 52.571 19.2672 52.8734 19.1073 53.2621C18.7288 54.182 19.1671 55.2343 20.087 55.6133C21.0069 55.9923 22.0592 55.5535 22.4382 54.6336C22.5337 54.4017 22.5771 54.1611 22.5741 53.9246C22.5741 53.9246 22.5746 53.9159 22.5736 53.9113C22.5705 53.7601 22.548 53.6115 22.5082 53.468C22.075 49.9077 24.1019 47.9177 24.1019 47.9177L22.6558 47.3226C22.6558 47.3221 22.6946 50.157 19.8883 52.3794Z" fill="#7BB72D"/>
<path d="M38.6748 52.9745C38.5696 53.3505 38.5849 53.7627 38.7469 54.1514C39.1294 55.0693 40.1837 55.5035 41.1021 55.1209C42.02 54.7383 42.4542 53.684 42.0716 52.7656C41.9751 52.5337 41.8356 52.333 41.6666 52.1685C41.6666 52.1685 41.6609 52.1624 41.6569 52.1593C41.5481 52.0546 41.427 51.9652 41.2973 51.8916C38.4736 49.6804 38.4996 46.8399 38.4996 46.8399L37.0561 47.4416C37.0556 47.4416 39.087 49.4189 38.6748 52.9745Z" fill="#7BB72D"/>
<path d="M52.3794 40.1117C52.571 40.4519 52.8734 40.7328 53.2621 40.8927C54.182 41.2712 55.2343 40.8329 55.6133 39.913C55.9918 38.9931 55.5535 37.9408 54.6336 37.5618C54.4017 37.4663 54.1611 37.4229 53.9246 37.4259C53.9246 37.4259 53.9159 37.4254 53.9113 37.4264C53.7601 37.4295 53.6115 37.452 53.468 37.4918C49.9077 37.925 47.9176 35.8981 47.9176 35.8981L47.3226 37.3442C47.3221 37.3442 50.157 37.3054 52.3794 40.1117Z" fill="#7BB72D"/>
<path d="M52.9745 21.3252C53.3505 21.4304 53.7627 21.4151 54.1514 21.2532C55.0693 20.8706 55.5035 19.8163 55.1209 18.8979C54.7383 17.98 53.684 17.5458 52.7656 17.9284C52.5337 18.0249 52.333 18.1644 52.1685 18.3335C52.1685 18.3335 52.1624 18.3391 52.1593 18.3432C52.0546 18.452 51.9652 18.573 51.8916 18.7028C49.6804 21.5264 46.8399 21.5004 46.8399 21.5004L47.4416 22.9439C47.4416 22.9444 49.4189 20.9125 52.9745 21.3252Z" fill="#7BB72D"/>
<path d="M40.1117 7.62053C40.4519 7.42898 40.7328 7.12659 40.8927 6.73788C41.2712 5.81794 40.8329 4.7657 39.913 4.38669C38.9931 4.00819 37.9408 4.44645 37.5618 5.36639C37.4663 5.5983 37.4229 5.83888 37.4259 6.07538C37.4259 6.07538 37.4254 6.08406 37.4264 6.08866C37.4295 6.23985 37.452 6.3885 37.4918 6.53203C37.925 10.0923 35.8981 12.0823 35.8981 12.0823L37.3442 12.6774C37.3442 12.6774 37.3054 9.843 40.1117 7.62053Z" fill="#7BB72D"/>
<path d="M12.7586 10.1628C12.6994 9.66015 12.4772 9.17285 12.091 8.78669C11.1787 7.87441 9.69949 7.87441 8.7867 8.78669C7.87391 9.69897 7.87442 11.1782 8.7867 12.091C9.01706 12.3214 9.2837 12.4935 9.5677 12.6074C9.5677 12.6074 9.57792 12.612 9.58405 12.6136C9.7664 12.6851 9.95591 12.7326 10.148 12.7566C14.6276 14.0147 15.9991 17.435 15.9991 17.435L17.4334 16.0006C17.4334 16.0006 14.0198 14.6322 12.7586 10.1628Z" fill="#A7E355"/>
<path d="M3.78141 28.1647C3.3835 27.8511 2.88242 27.6636 2.33638 27.6636C1.04611 27.6636 0 28.7097 0 30C0 31.2902 1.04611 32.3364 2.33638 32.3364C2.66226 32.3364 2.97232 32.2694 3.25376 32.1494C3.25376 32.1494 3.26449 32.1458 3.2696 32.1423C3.4494 32.0641 3.61694 31.9635 3.76967 31.845C7.82691 29.5668 11.215 31.016 11.215 31.016V28.9871C11.215 28.9871 7.83355 30.4331 3.78141 28.1647Z" fill="#A7E355"/>
<path d="M10.1628 47.2414C9.66016 47.3011 9.17286 47.5228 8.7867 47.909C7.87442 48.8213 7.87442 50.3005 8.7867 51.2133C9.69898 52.1261 11.1782 52.1256 12.091 51.2133C12.3214 50.9829 12.4935 50.7163 12.6074 50.4323C12.6074 50.4323 12.612 50.4221 12.6136 50.416C12.6851 50.2336 12.7326 50.0441 12.7566 49.852C14.0147 45.3724 17.435 44.0009 17.435 44.0009L16.0007 42.5666C16.0007 42.5666 14.6322 45.9802 10.1628 47.2414Z" fill="#A7E355"/>
<path d="M28.1647 56.2186C27.8511 56.6165 27.6636 57.1176 27.6636 57.6637C27.6636 58.9539 28.7097 60 30 60C31.2903 60 32.3364 58.9539 32.3364 57.6637C32.3364 57.3378 32.2695 57.0277 32.1494 56.7463C32.1494 56.7463 32.1458 56.7355 32.1423 56.7304C32.0641 56.5506 31.9635 56.3831 31.845 56.2304C29.5668 52.1731 31.016 48.785 31.016 48.785H28.9871C28.9871 48.785 30.4331 52.1665 28.1647 56.2186Z" fill="#A7E355"/>
<path d="M47.2414 49.8372C47.3011 50.3398 47.5228 50.8271 47.909 51.2133C48.8213 52.1256 50.3005 52.1256 51.2133 51.2133C52.1261 50.301 52.1256 48.8218 51.2133 47.909C50.9829 47.6786 50.7163 47.5065 50.4323 47.3926C50.4323 47.3926 50.4221 47.388 50.416 47.3864C50.2336 47.3149 50.0441 47.2674 49.852 47.2434C45.3724 45.9853 44.0009 42.565 44.0009 42.565L42.5666 43.9993C42.5666 43.9993 45.9802 45.3678 47.2414 49.8372Z" fill="#A7E355"/>
<path d="M56.2186 31.8353C56.6165 32.1489 57.1176 32.3364 57.6636 32.3364C58.9539 32.3364 60 31.2902 60 30C60 28.7097 58.9539 27.6636 57.6636 27.6636C57.3377 27.6636 57.0277 27.7305 56.7462 27.8506C56.7462 27.8506 56.7355 27.8541 56.7304 27.8577C56.5506 27.9359 56.3831 28.0365 56.2303 28.155C52.1731 30.4331 48.785 28.984 48.785 28.984V31.0129C48.785 31.0129 52.1664 29.5668 56.2186 31.8353Z" fill="#A7E355"/>
<path d="M49.8372 12.7586C50.3398 12.6993 50.8271 12.4772 51.2133 12.091C52.1256 11.1787 52.1256 9.69945 51.2133 8.78667C50.301 7.87388 48.8218 7.87439 47.909 8.78667C47.6786 9.01703 47.5065 9.28367 47.3926 9.56767C47.3926 9.56767 47.388 9.57789 47.3864 9.58402C47.3149 9.76637 47.2674 9.95587 47.2434 10.1479C45.9853 14.6276 42.565 15.9991 42.565 15.9991L43.9993 17.4334C43.9993 17.4334 45.3678 14.0198 49.8372 12.7586Z" fill="#A7E355"/>
<path d="M30 49.1119C40.5552 49.1119 49.1119 40.5552 49.1119 30C49.1119 19.4448 40.5552 10.8881 30 10.8881C19.4448 10.8881 10.8881 19.4448 10.8881 30C10.8881 40.5552 19.4448 49.1119 30 49.1119Z" fill="#7BB72D"/>
<path d="M30 46.5421C39.1359 46.5421 46.5421 39.1359 46.5421 30C46.5421 20.8641 39.1359 13.4579 30 13.4579C20.8641 13.4579 13.4579 20.8641 13.4579 30C13.4579 39.1359 20.8641 46.5421 30 46.5421Z" fill="#A7E355"/>
<path d="M28.0761 17.3905C28.337 16.2855 27.6527 15.1782 26.5477 14.9172C25.4426 14.6563 24.3353 15.3406 24.0744 16.4456C23.8134 17.5507 24.4977 18.658 25.6027 18.9189C26.7078 19.1799 27.8151 18.4956 28.0761 17.3905Z" fill="#7BB72D"/>
<path d="M19.5068 25.376C19.6887 24.2552 18.9276 23.1991 17.8068 23.0172C16.686 22.8353 15.6299 23.5965 15.448 24.7173C15.2661 25.8381 16.0272 26.8942 17.148 27.0761C18.2689 27.258 19.3249 26.4969 19.5068 25.376Z" fill="#7BB72D"/>
<path d="M19.757 36.363C20.0179 35.258 19.3337 34.1506 18.2286 33.8897C17.1236 33.6288 16.0162 34.3131 15.7553 35.4181C15.4944 36.5231 16.1787 37.6305 17.2837 37.8914C18.3887 38.1524 19.4961 37.4681 19.757 36.363Z" fill="#7BB72D"/>
<path d="M30.1446 43.6966C30.9475 42.8937 30.9475 41.5919 30.1446 40.789C29.3417 39.9861 28.0399 39.9861 27.237 40.789C26.4342 41.5919 26.4342 42.8937 27.237 43.6966C28.0399 44.4994 29.3417 44.4994 30.1446 43.6966Z" fill="#7BB72D"/>
<path d="M40.5352 40.5162C40.7171 39.3954 39.9559 38.3394 38.8351 38.1575C37.7143 37.9755 36.6582 38.7367 36.4763 39.8575C36.2944 40.9783 37.0555 42.0344 38.1764 42.2163C39.2972 42.3982 40.3533 41.6371 40.5352 40.5162Z" fill="#7BB72D"/>
<path d="M43.1356 25.5658C43.9385 24.7629 43.9385 23.4612 43.1356 22.6583C42.3327 21.8554 41.031 21.8554 40.2281 22.6583C39.4252 23.4612 39.4252 24.7629 40.2281 25.5658C41.031 26.3687 42.3327 26.3687 43.1356 25.5658Z" fill="#7BB72D"/>
<path d="M38.2692 19.111C38.7073 18.6729 38.7073 17.9627 38.2692 17.5246C37.8312 17.0866 37.121 17.0866 36.6829 17.5246C36.2449 17.9627 36.2448 18.6729 36.6829 19.111C37.121 19.549 37.8312 19.549 38.2692 19.111Z" fill="#7BB72D"/>
<path d="M32.6619 19.7652C33.0999 19.3272 33.0999 18.617 32.6619 18.1789C32.2238 17.7409 31.5136 17.7409 31.0755 18.1789C30.6375 18.617 30.6375 19.3272 31.0755 19.7652C31.5136 20.2033 32.2238 20.2033 32.6619 19.7652Z" fill="#7BB72D"/>
<path d="M23.0471 23.0925C23.6194 22.8554 23.8912 22.1992 23.6542 21.6269C23.4171 21.0545 22.7609 20.7827 22.1885 21.0198C21.6162 21.2569 21.3444 21.9131 21.5815 22.4854C21.8186 23.0578 22.4747 23.3296 23.0471 23.0925Z" fill="#7BB72D"/>
<path d="M21.4647 28.7649C21.6071 28.162 21.2338 27.5578 20.6309 27.4155C20.028 27.2731 19.4238 27.6465 19.2814 28.2494C19.1391 28.8523 19.5124 29.4564 20.1153 29.5988C20.7182 29.7411 21.3224 29.3678 21.4647 28.7649Z" fill="#7BB72D"/>
<path d="M22.9904 39.2525C23.6099 39.2525 24.1121 38.7503 24.1121 38.1308C24.1121 37.5113 23.6099 37.0091 22.9904 37.0091C22.3709 37.0091 21.8687 37.5113 21.8687 38.1308C21.8687 38.7503 22.3709 39.2525 22.9904 39.2525Z" fill="#7BB72D"/>
<path d="M32.3364 39.0656C32.9559 39.0656 33.4581 38.5634 33.4581 37.9439C33.4581 37.3244 32.9559 36.8222 32.3364 36.8222C31.7169 36.8222 31.2147 37.3244 31.2147 37.9439C31.2147 38.5634 31.7169 39.0656 32.3364 39.0656Z" fill="#7BB72D"/>
<path d="M44.1571 33.1296C44.5951 32.6915 44.5951 31.9813 44.1571 31.5432C43.719 31.1052 43.0088 31.1052 42.5707 31.5432C42.1327 31.9813 42.1327 32.6915 42.5707 33.1296C43.0088 33.5676 43.719 33.5676 44.1571 33.1296Z" fill="#7BB72D"/>
<path d="M37.57 31.1217C38.1895 31.1217 38.6917 30.6195 38.6917 30C38.6917 29.3805 38.1895 28.8783 37.57 28.8783C36.9505 28.8783 36.4483 29.3805 36.4483 30C36.4483 30.6195 36.9505 31.1217 37.57 31.1217Z" fill="#7BB72D"/>
<path d="M26.6354 31.1217C27.2549 31.1217 27.7571 30.6195 27.7571 30C27.7571 29.3805 27.2549 28.8783 26.6354 28.8783C26.0159 28.8783 25.5137 29.3805 25.5137 30C25.5137 30.6195 26.0159 31.1217 26.6354 31.1217Z" fill="#7BB72D"/>
<path d="M31.1079 26.3479C31.2071 25.7364 30.7919 25.1602 30.1804 25.0609C29.5688 24.9617 28.9927 25.377 28.8934 25.9885C28.7942 26.6 29.2095 27.1762 29.821 27.2754C30.4325 27.3746 31.0087 26.9594 31.1079 26.3479Z" fill="#7BB72D"/>
<path d="M31.9139 32.8493C32.352 32.4112 32.352 31.701 31.9139 31.263C31.4759 30.8249 30.7657 30.8249 30.3276 31.263C29.8896 31.701 29.8896 32.4112 30.3276 32.8493C30.7657 33.2873 31.4759 33.2873 31.9139 32.8493Z" fill="#7BB72D"/>
</svg>
